<svg xmlns="http://www.w3.org/2000/svg" xmlns:xlink="http://www.w3.org/1999/xlink" viewBox="0 0 985 600" width="985" height="600">
	<defs><linearGradient id="e16957ed-3fa9-45c6-803d-fbfec53f37c9" x1="23.0833" y1="102.8734" x2="23.0833" y2="16.8734" gradientUnits="userSpaceOnUse"><stop offset="0" stop-color="#050f6e"/><stop offset="1" stop-color="#324be6"/></linearGradient><linearGradient id="6dc55beb-911a-425f-8a8b-eb9911f85799" x1="546.7292" y1="55.5818" x2="546.7292" y2="19.8734" xlink:href="#e16957ed-3fa9-45c6-803d-fbfec53f37c9"/></defs>

	<image width="985" height="600" preserveAspectRatio="xMidYMid slice" href="[image]"/>


	<g transform="scale(0.24) translate(100 100)" fill="#fff" opacity="0.4"><path d="M589.584 326.884a190.16 190.16 0 0 0 61.935 115.331c72.7 65.869 185.71 65.869 258.403 0 87.164-77.464 84.847-216.507-4.242-291.425-71.582-60.908-178.337-60.908-249.919 0a190.915 190.915 0 0 0-64.668 110.469c-35.454-.003-74.374-.02-109.586.019q-.061-41.32 0-82.601 64.53 0 129.11-.021V111.11q-100.097-.029-200.2 0v371.864h71.068q.032-78.075 0-156.149c34.731.076 73.148-.128 108.103.092zm76.02-70.588c37.976-107.52 192.257-107.52 230.24 0 23.27 63.515-11.182 135.151-75.157 156.991a121.07 121.07 0 0 1-79.932 0c-63.976-21.84-98.426-93.476-75.152-156.991zM73.584 111.111c-24.343-.019-48.708.019-73.052-.019q-.061 186.181 0 372.403c24.344-.037 48.71 0 73.052-.021V111.111zM165.673 483.474c.22-33.691-.502-67.404.521-101.055q-.028-70.597.02-141.159 77.177 121.049 154.174 242.198c22.822.06 45.663 0 68.487.038q.062-186.21.02-372.385c-24.526-.019-49.03.019-73.533-.019q-.121 116.484-.038 232.97-75.888-116.304-151.373-232.91c-23.122-.122-46.226 0-69.349-.041q0 186.186.021 372.384 35.526-.031 71.05-.021zM419.225 523.795c-55.753 98.698-112.31 196.979-168.465 295.475q-.031-147.867 0-295.752c-11.472-.021-22.944 0-34.416-.021Q128.477 677.403 40.55 831.282c.06-102.544-.12-205.083.1-307.627-12.71-.321-25.423-.061-38.137-.137q0 182.431.02 364.882c17.398-.043 34.813 0 52.231-.043q77.69-136.539 155.496-273.068-.066 136.57.038 273.149c15.937-.141 31.874 0 47.808-.098Q361.89 705.902 465.81 523.534c-15.532.12-31.067-.358-46.584.261zM492.857 523.518Q388.775 705.95 284.67 888.34c15.558.038 31.134.119 46.688-.042 17.296-30.968 35.094-61.637 52.572-92.49q54.533-.058 109.068-.018.029 46.305.02 92.589 19.759-.032 39.518 0-.025-182.43-.017-364.882c-13.238.038-26.449 0-39.662.021zM493 755.745c-28.73-.016-57.458.044-86.166-.037 28.608-50.51 57.536-100.864 86.065-151.411.22 50.471.041 100.96.101 151.448zM999.016 774.47c-4.242-35-27.007-67.688-59.396-82.147-28.526-11.849-60.059-15.494-87.424-30.328-11.333-6.206-21.744-15.635-25.467-28.369-6.027-20.94-1.242-45.627 14.735-61.019 21.858-22.542 61.296-23.486 84.901-3.103 14.936 12.668 22.461 32.308 23.383 51.551 13.933.136 27.85.017 41.781.061 1.584-38.884-22.162-76.976-57.558-92.996-26.845-12.489-58.437-12.349-86.263-3.18a92.484 92.484 0 0 0-51.84 42.465 83.558 83.558 0 0 0-5.496 12.255 83.415 83.415 0 0 0-11.889-17.562 115.263 115.263 0 0 0-52.072-32.379c-23.161-6.482-47.407-7.004-71.273-7.725q-49.551.064-99.056.021-.065 183.154-.021 366.341l40.543.021V558.549h52.528c25.206.081 51.715-.179 74.936 11.052 24.544 11.914 40.999 37.961 43.044 64.946 1.422 20.942-5.425 42.6-19.699 58.138-14.057 15.132-33.974 23.883-54.178 26.904-21.956 2.545-44.118 2.084-66.205 2.1q62.344 83.365 124.788 166.667c16.775.06 33.572-.017 50.348.021-33.513-44.743-67.567-89.149-100.679-134.19 18.539-1.747 36.914-6.891 52.968-16.498a107.742 107.742 0 0 0 43.983-47.885 77.934 77.934 0 0 0 4.979-15.168 74.704 74.704 0 0 0 6.641 7.688c12.945 12.988 30.23 21.067 47.781 26.074 27.805 8.209 58.138 13.417 80.74 33.057 24.983 20.758 27.49 61.241 7.991 86.502-24.067 32.373-76.558 37.44-106.429 10.395-16.396-14.919-23.563-37.136-25.982-58.599-14.176.06-28.369-.06-42.545.076 1.041 30.371 11.974 61.225 34.375 82.405 47.325 44.444 132.41 39.317 172.63-12.272 16.638-21.045 23.946-48.969 20.397-75.493zM.008 0H1000v77.577H.01Q-.02 38.778.007 0zM.008 923.416H1000v77.577H.01q-.03-38.799-.002-77.577z"/></g>

	<g transform="translate(0 445)" width="985" height="155"><rect x="29.1667" y="16.8734" width="90.8333" height="86" fill="#fff" opacity="0.85"/><rect x="17" y="16.8734" width="12.1667" height="86" fill="url(#e16957ed-3fa9-45c6-803d-fbfec53f37c9)"/><rect x="125.125" y="19.8734" width="843.2083" height="35.7083" fill="url(#6dc55beb-911a-425f-8a8b-eb9911f85799)"/><rect x="125.125" y="55.5818" width="843.2083" height="45.875" fill="#fff" opacity="0.85"/><rect x="125.125" y="105.2068" width="843.2083" height="33.25" fill="#fff" opacity="0.85"/><polygon points="681.938 47.644 968.333 47.644 968.333 19.873 642.188 19.873 681.938 47.644"/><path d="M83.0479,45.52A15.8808,15.8808,0,0,0,88.22,55.1515a16.1482,16.1482,0,1,0,.3542-24.3376,15.9444,15.9444,0,0,0-5.4006,9.2255c-2.9608,0-6.2111-.0016-9.1517.0016q-.0051-3.4507,0-6.8982,5.3891,0,10.7822-.0018V27.5q-8.3594-.0024-16.7192,0,0,15.5285,0,31.0552H74.02q.0025-6.52,0-13.04c2.9.0063,6.1087-.0107,9.0279.0077Zm6.3486-5.895c3.1715-8.9792,16.0559-8.9792,19.2278,0a10.2361,10.2361,0,0,1-6.2764,13.1107,10.1108,10.1108,0,0,1-6.6753,0A10.2356,10.2356,0,0,1,89.3965,39.6249Z"/><path d="M39.9556,27.5c-2.0329-.0016-4.0677.0016-6.1007-.0016q-.0051,15.5486,0,31.1c2.033-.003,4.0678,0,6.1007-.0017Q39.9556,43.049,39.9556,27.5Z"/><path d="M47.6462,58.5971c.0184-2.8136-.0419-5.6291.0435-8.4393q-.0024-5.8957.0016-11.7885,6.4454,10.109,12.8755,20.2265c1.9059.005,3.8134,0,5.7195.0031q.0051-15.5508.0016-31.0987c-2.0482-.0016-4.0945.0016-6.1408-.0016q-.01,9.7279-.0032,19.4559-6.3377-9.7128-12.6415-19.4509c-1.931-.01-3.86,0-5.7915-.0034q0,15.5489.0018,31.0986Q44.68,58.5963,47.6462,58.5971Z"/><path d="M68.8209,61.9644c-4.6561,8.2425-9.3793,16.45-14.0689,24.6758q-.0025-12.3487,0-24.6989c-.958-.0018-1.9161,0-2.8742-.0018Q44.54,74.7926,37.1968,87.6433c.0049-8.5637-.01-17.1269.0084-25.6906-1.0616-.0268-2.1232-.0051-3.1849-.0114q0,15.2352.0015,30.4721c1.4531-.0036,2.9074,0,4.3621-.0036Q44.8719,81.0071,51.37,69.6053q-.0056,11.4052.0031,22.8112c1.331-.0117,2.6619,0,3.9926-.0081q8.6673-15.2358,17.3458-30.4658C71.4141,61.9526,70.1168,61.9127,68.8209,61.9644Z"/><path d="M74.97,61.9413Q66.2779,77.1765,57.5839,92.4084c1.2993.0031,2.6.01,3.899-.0035,1.4445-2.5862,2.9308-5.1475,4.39-7.7242q4.5542-.0046,9.1085-.0014.0024,3.867.0016,7.7323,1.65-.0026,3.3,0-.0022-15.235-.0015-30.4721C77.1768,61.9427,76.0735,61.94,74.97,61.9413Zm.0118,19.3938c-2.3993-.0014-4.7984.0036-7.1959-.0031,2.3891-4.2182,4.805-8.4234,7.1875-12.6447C74.9919,72.9022,74.9769,77.1187,74.9819,81.3351Z"/><path d="M117.2406,82.8987a8.7554,8.7554,0,0,0-4.96-6.86c-2.3823-.9895-5.0157-1.2939-7.301-2.5327a4.1928,4.1928,0,0,1-2.1268-2.3692,5.1894,5.1894,0,0,1,1.23-5.0958,5.35,5.35,0,0,1,7.09-.2591,6.0052,6.0052,0,0,1,1.9528,4.3051c1.1635.0113,2.3257.0014,3.4892.0051a8.3391,8.3391,0,0,0-4.8068-7.7663,9.9074,9.9074,0,0,0-7.204-.2656,7.7236,7.7236,0,0,0-4.3293,3.5464,6.9718,6.9718,0,0,0-.459,1.0234,6.96,6.96,0,0,0-.9929-1.4666,9.6251,9.6251,0,0,0-4.3486-2.7041,24.7445,24.7445,0,0,0-5.9522-.6451q-4.138.0054-8.2724.0017-.0054,15.2957-.0017,30.594l3.3858.0018q0-13.7733,0-27.5447h4.3867c2.105.0067,4.3189-.015,6.2581.9229a6.6649,6.6649,0,0,1,3.5947,5.4238,6.5784,6.5784,0,0,1-1.6451,4.8553,7.7126,7.7126,0,0,1-4.5245,2.2468,48.3024,48.3024,0,0,1-5.5289.1754Q91.3817,85.453,96.5965,92.41c1.4009.005,2.8037-.0014,4.2047.0017-2.7988-3.7365-5.6427-7.445-8.408-11.2065a10.5223,10.5223,0,0,0,4.4235-1.3777,8.9981,8.9981,0,0,0,3.6731-3.999,6.508,6.508,0,0,0,.4158-1.2667,6.2418,6.2418,0,0,0,.5546.642,9.0969,9.0969,0,0,0,3.99,2.1775c2.3221.6855,4.8553,1.12,6.7428,2.7607a5.3987,5.3987,0,0,1,.6674,7.2239,6.2669,6.2669,0,0,1-8.8882.8681,7.6547,7.6547,0,0,1-2.17-4.8937c-1.1838.005-2.3691-.005-3.553.0064a9.9085,9.9085,0,0,0,2.8707,6.8818c3.9522,3.7116,11.0579,3.2834,14.4167-1.0249A8.4662,8.4662,0,0,0,117.2406,82.8987Z"/><text transform="translate(137.75 92.7479)" font-size="37" font-family="Raleway ExtraBold" font-weight="700">[title]</text><text transform="translate(137.75 128.2479)" font-size="19" font-family="Raleway SemiBold" font-weight="700">[caption]</text><text transform="translate(688.8333 40.4777)" font-size="19" fill="#fff" font-family="Raleway SemiBold" font-weight="700">[website]</text><text transform="translate(137.75 44.2637)" font-size="19" fill="#fff" font-family="Raleway SemiBold" font-weight="700">[name] SHOW LIVE</text></g>
</svg>