<svg version="1.1" xmlns="http://www.w3.org/2000/svg" viewBox="0 0 400 190" width="400" height="190">
	<!-- Background -->
	<defs>
		<linearGradient id="bg-grad" x1="0" y1="0" x2="100%" y2="0">
			<stop offset="0%" stop-color="rgba(255,255,255,0)" />
			<stop offset="100%" stop-color="rgba(255,255,255,1)" />
		</linearGradient>
	</defs>
	<clipPath id="bg-clip"><rect x="0" y="60" width="400" height="130" rx="10" ry="10"/></clipPath>
	<rect x="0" y="60" width="400" height="130" fill="#ffffff" clip-path="url(#bg-clip)"/>
	<image x="0" y="60" width="400" height="130" clip-path="url(#bg-clip)" preserveAspectRatio="xMaxYMax slice" style="opacity: 0.5" href="[avatar]"/>
	<rect x="0" y="60" width="400" height="130" fill="url(#bg-grad)" clip-path="url(#bg-clip)"/>

	<!-- Text -->
	<rect x="0" y="60" width="300" height="45" fill="#1d1f21" style="opacity: 0.5;" clip-path="url(#bg-clip)"/>
	<rect x="0" y="60" width="[xp]" height="45" fill="#f0b4b4" clip-path="url(#bg-clip)"/>
	<text x="16.5" y="90.5" fill="#000000" style="opacity: 0.5;" font-size="20" font-family="'Roboto'">[level]</text>
	<text x="15" y="89" fill="#ffffff" font-size="20" font-family="'Roboto'">[level]</text>

	<g transform="translate(15 120)">
		<svg x="0" y="0" width="24" height="24" viewBox="0 0 128 128" xmlns="http://www.w3.org/2000/svg"><radialGradient id="a" cx="34.5" cy="42" gradientUnits="userSpaceOnUse" r="64.228"><stop offset=".475" stop-color="#e53935"/><stop offset="1" stop-color="#c62828"/></radialGradient><path d="M85.17 57.24c-15.63-8.57-31.61 6.97-31.61 6.97S58.14 42.42 42.4 33.8c-11.82-6.48-30.45-4.5-37.14 19.53-6.7 24.03 15.41 70.53 15.41 70.53s.23.03.29-.09c-.06.12.03.24.03.24S72 117.62 88.66 99.05c16.66-18.57 8.34-35.33-3.49-41.81z" fill="url(#a)"/><path d="M30.13 33.61c3.73 0 7.48.97 10.84 2.82 13.57 7.44 9.71 26.97 9.67 27.17l-2.02 9.62 7.05-6.85c.09-.09 9.06-8.69 19.5-8.69 3.02 0 5.9.74 8.58 2.21 5.87 3.22 9.99 8.79 11.03 14.9 1.22 7.14-1.66 14.84-8.33 22.28-13.94 15.54-54.52 22.32-63.88 23.71-3.9-8.69-20-46.53-14.4-66.63 4.96-17.88 15.89-20.54 21.96-20.54m0-3c-9.86 0-20.22 6.06-24.86 22.71-6.7 24.03 15.41 70.53 15.41 70.53h.06c.07 0 .19-.01.23-.09-.06.12.03.24.03.24s51-6.38 67.66-24.95c16.66-18.57 8.33-35.33-3.49-41.81-3.38-1.85-6.77-2.58-10.02-2.58-11.77 0-21.59 9.54-21.59 9.54s4.58-21.79-11.16-30.41c-3.63-1.99-7.9-3.18-12.27-3.18z" fill="#424242" opacity=".2"/><g><radialGradient id="b" cx="61.84" cy="13.681" gradientTransform="matrix(.9585 -.2796 .2615 .8963 17.634 18.159)" gradientUnits="userSpaceOnUse" r="38.496"><stop offset=".475" stop-color="#e53935"/><stop offset="1" stop-color="#c62828"/></radialGradient><path d="M104.44 4.53C94.09 7.55 93.9 21.03 93.9 21.03s-7.36-11.28-17.79-8.24c-7.83 2.29-14.95 11.1-7.54 24.25 7.42 13.15 36.77 23.58 36.77 23.58s.11-.09.09-.16c.02.08.12.09.12.09S124.64 36 123.82 20.92c-.81-15.07-11.54-18.68-19.38-16.39z" fill="url(#b)"/><path d="M108.85 6.9c7.02 0 11.5 5.3 11.98 14.19.57 10.6-10.69 28.23-16.42 35.99-9.02-3.47-28.01-12.27-33.22-21.51-2.78-4.93-3.46-9.5-1.94-13.21 1.28-3.15 4.16-5.64 7.71-6.68.91-.27 1.83-.4 2.74-.4 6.73 0 11.65 7.33 11.7 7.4l5.37 8.23.14-9.83c0-.11.25-11.29 8.38-13.67 1.15-.34 2.35-.51 3.56-.51m0-3c-1.51 0-3.01.22-4.41.63-10.35 3.02-10.54 16.5-10.54 16.5s-5.72-8.76-14.21-8.76c-1.15 0-2.34.16-3.58.52-7.83 2.29-14.95 11.1-7.54 24.25 7.42 13.15 36.77 23.58 36.77 23.58s.11-.09.09-.16c.02.08.12.09.12.09S124.64 36 123.82 20.92C123.15 8.55 115.8 3.9 108.85 3.9z" fill="#424242" opacity=".2"/></g></svg>
		<text x="30" y="20" fill="#000000" font-size="20" font-family="'Roboto'">[waifu]</text>
	</g>
	<g transform="translate(15 150)">
		<svg x="2" y="4" width="20" height="20" viewBox="0 0 128 128" xmlns="http://www.w3.org/2000/svg"><linearGradient id="c" gradientUnits="userSpaceOnUse" x1="64" x2="64" y1="3" y2="125.241"><stop offset="0" stop-color="#ffb74d"/><stop offset=".743" stop-color="#fb8d03"/><stop offset=".768" stop-color="#fb8c00"/><stop offset="1" stop-color="#fb8c00"/></linearGradient><path d="M58.34 121.65l-52-52c-3.12-3.12-3.12-8.19 0-11.31l52-52c3.12-3.12 8.19-3.12 11.31 0l52 52c3.12 3.12 3.12 8.19 0 11.31l-52 52c-3.12 3.13-8.18 3.13-11.31 0z" fill="url(#c)"/><path d="M64 7c1.34 0 2.59.52 3.54 1.46l52 52c.94.94 1.46 2.2 1.46 3.54 0 1.34-.52 2.59-1.46 3.54l-52 52c-.94.94-2.2 1.46-3.54 1.46-1.34 0-2.59-.52-3.54-1.46l-52-52C7.52 66.59 7 65.34 7 64c0-1.34.52-2.59 1.46-3.54l52-52C61.41 7.52 62.66 7 64 7m0-3c-2.05 0-4.09.78-5.66 2.34l-52 52c-3.12 3.12-3.12 8.19 0 11.31l52 52c1.56 1.56 3.61 2.34 5.66 2.34s4.09-.78 5.66-2.34l52-52c3.12-3.12 3.12-8.19 0-11.31l-52-52A7.997 7.997 0 0 0 64 4z" fill="#424242" opacity=".2"/></svg>
		<text x="30" y="20" fill="#000000" font-size="20" font-family="'Roboto'">[coins]</text>
	</g>
	<g transform="translate(165 120)">
		<svg x="0" y="0" width="24" height="24" xmlns="http://www.w3.org/2000/svg" viewBox="0 0 128 128"><defs><style>.\34 948fe86-5729-4dfe-9ba0-0e124ec4e40d{fill:#1d1f21;}</style></defs><title>oh my</title><path class="4948fe86-5729-4dfe-9ba0-0e124ec4e40d" d="M32.523,55.025a4.151,4.151,0,0,1-1.621,2.52,39.527,39.527,0,0,1,1.465,6.786,34.815,34.815,0,0,1,.2,7.21,32.672,32.672,0,0,1-1.227,6.795,14.627,14.627,0,0,1-2.869,5.456,11.838,11.838,0,0,1-5.137,3.388q-3.308,1.207-7.9-.547a11.727,11.727,0,0,1-4.454-2.957,18.02,18.02,0,0,1-3.116-4.6,27.589,27.589,0,0,1-1.987-5.819,35.224,35.224,0,0,1-.847-6.638A34.291,34.291,0,0,1,6.492,55.337a15.286,15.286,0,0,1,5.287-8.114,7.721,7.721,0,0,1,3.578-1.434,9.015,9.015,0,0,1,4,.775,16.146,16.146,0,0,0,2.605.806,11.854,11.854,0,0,1,2.427.8A7.686,7.686,0,0,1,26.734,49.9a15.59,15.59,0,0,1,2.378,3.586,7.067,7.067,0,0,0,.517,1.032,7.3,7.3,0,0,1,.517,1.033,4.338,4.338,0,0,0,.757-.582,4.925,4.925,0,0,1,.844-.635q.425-.261.624-.031A.944.944,0,0,1,32.523,55.025ZM24.6,59.89a8.784,8.784,0,0,1-2.248-.029,12.5,12.5,0,0,1-4.482-1.473,10.627,10.627,0,0,1-4.041-3.622,36.412,36.412,0,0,0-1.307,5.613,31.687,31.687,0,0,0-.339,6.426,38.674,38.674,0,0,0,.827,6.415,31.317,31.317,0,0,0,1.72,5.573,18.851,18.851,0,0,0,2.262,4.068,3.919,3.919,0,0,0,2.487,1.758,2.989,2.989,0,0,0,2.556-.806A8.76,8.76,0,0,0,24.2,80.663a20.378,20.378,0,0,0,1.414-5.15,30.559,30.559,0,0,0,.18-6.974q-.161-2.365-.467-4.583T24.6,59.89Zm-.816-2.667A20.135,20.135,0,0,0,20.592,50.5q-1.6-1.836-2.4-1.048t0,2.873a8.126,8.126,0,0,0,5.588,4.9Z"/><path class="4948fe86-5729-4dfe-9ba0-0e124ec4e40d" d="M72.163,45.247a23.966,23.966,0,0,1-.184,4.865,21.8,21.8,0,0,1-1.221,4.8,16.628,16.628,0,0,1-2.309,4.174,12.168,12.168,0,0,1-3.307,3.026q-5.366,3.294-9,.716t-5.128-9.407a44.319,44.319,0,0,1-1.064-7.853q-.205-4.156-.187-7.57T49.668,32.3q-.11-2.279-.776-2.223-.584.007-1.824,2a29.881,29.881,0,0,0-2.443,5.2,56.982,56.982,0,0,0-2.132,7.233,36.244,36.244,0,0,0-.921,8.25Q41.625,58,42,63.583a95.331,95.331,0,0,0,1.245,10.44q.242,1.729-1.239,1.23A7.6,7.6,0,0,1,38.678,72.9Q37.111,71.1,36.117,66.43A71.2,71.2,0,0,1,35.134,59q-.442-4.832-.7-10.892T34.04,35.322q-.136-6.72-.095-12.965T34.2,10.82q.212-5.292.61-8.47.125-1.132.705-1.43a1.339,1.339,0,0,1,1.393.26,10.864,10.864,0,0,1,3.5,4.656,22.282,22.282,0,0,1,1.539,8.912q.018,1.748-.025,4.356t-.1,5.575q-.057,2.969-.136,6.184t-.135,6.184a31.943,31.943,0,0,1,1.263-4.06q.769-2,1.608-3.687a15.2,15.2,0,0,1,1.816-2.874A5.934,5.934,0,0,1,48.119,24.8a4.941,4.941,0,0,1,2.621-.318A6.825,6.825,0,0,1,53.5,25.548a7.5,7.5,0,0,1,2.322,2.446,8.013,8.013,0,0,1,1.109,3.719q.207,1.869.241,4.311t.1,5.041q.067,2.6.206,5.212t.364,4.7a23.869,23.869,0,0,0,1.037,4.174,9.572,9.572,0,0,0,1.556,2.918,3.747,3.747,0,0,0,2,1.351,2.676,2.676,0,0,0,2.242-.554,6.467,6.467,0,0,0,2.063-2.851,20.176,20.176,0,0,0,1.266-4.532,35.54,35.54,0,0,0,.469-5.45,55.523,55.523,0,0,0-.191-5.572.95.95,0,0,1,1.482-1.027,4.458,4.458,0,0,1,1.441,1.872A12.128,12.128,0,0,1,72.163,45.247Z"/><path class="4948fe86-5729-4dfe-9ba0-0e124ec4e40d" d="M45.672,90.6a39.958,39.958,0,0,1,1.183-5.242q.812-2.788,1.808-5.275a26.3,26.3,0,0,1,2.161-4.318A7.958,7.958,0,0,1,53.181,73.2a3.079,3.079,0,0,1,2.415-.366,6.261,6.261,0,0,1,2.466,1.245,11.274,11.274,0,0,1,2.158,2.37,9.4,9.4,0,0,1,1.412,3.064,47.456,47.456,0,0,1,1.477-4.954q.882-2.479,1.925-4.7a23.4,23.4,0,0,1,2.182-3.8,8.168,8.168,0,0,1,2.164-2.208,2.658,2.658,0,0,1,2.383-.229,5.823,5.823,0,0,1,2.34,1.615,11.048,11.048,0,0,1,1.873,2.957,17.7,17.7,0,0,1,1.205,3.778,31.988,31.988,0,0,1,.357,4.121q.067,2.309.041,4.846t-.035,5.008a40.79,40.79,0,0,0,.217,4.56A12.011,12.011,0,0,0,78.7,94.62,9.755,9.755,0,0,0,80.47,97.4a3.7,3.7,0,0,0,2.148,1.205,3.465,3.465,0,0,0,2.352-.564A5.2,5.2,0,0,0,86.985,95.4a19.849,19.849,0,0,0,1.105-4.316,39.618,39.618,0,0,0,.408-5.355q.041-2.9-.039-5.9a1.112,1.112,0,0,1,.4-1.067,1.148,1.148,0,0,1,1.027-.045q.6.22,1.461,2.1a12.2,12.2,0,0,1,1.068,3.745,22.368,22.368,0,0,1-.227,4.89,21.654,21.654,0,0,1-1.316,4.832A17.305,17.305,0,0,1,88.5,98.438a12.514,12.514,0,0,1-3.322,3A11.393,11.393,0,0,1,79.86,103.3a7.646,7.646,0,0,1-4.469-1.07,9.611,9.611,0,0,1-3.322-3.6,15.7,15.7,0,0,1-1.781-5.77,61.361,61.361,0,0,1-.441-7.413q-.015-4.04.088-7.5t.037-5.771q-.067-2.3-.684-2.163a2.333,2.333,0,0,0-.885.661,8.135,8.135,0,0,0-1.268,1.95,35.15,35.15,0,0,0-1.523,3.634,50.472,50.472,0,0,0-1.625,5.573A62.439,62.439,0,0,0,62.181,98.48q.27,7.994,1.255,15.715.192,2.228-1.7,1.629a7.053,7.053,0,0,1-1.817-.762,6.581,6.581,0,0,1-1.93-1.808,14.157,14.157,0,0,1-1.739-3.215,22.949,22.949,0,0,1-1.274-4.85,44.544,44.544,0,0,1-.609-7.781q-.012-4.509.017-8.574t-.119-6.791q-.149-2.725-.9-2.615-.977.132-2.75,3.74a43.5,43.5,0,0,0-3.092,10.639,55.232,55.232,0,0,0-.941,13.953q.384,7.509,1.541,15.129.237,1.729-1.357,1.42a5.529,5.529,0,0,1-3.73-2.254,14.835,14.835,0,0,1-2.457-5.916,62.548,62.548,0,0,1-1.051-6.4q-.476-3.93-.814-8.593t-.447-9.523q-.108-4.86.105-9.1.05-2.023,1.79-1.1A8.249,8.249,0,0,1,43.7,85,19.943,19.943,0,0,1,45.672,90.6Z"/><path class="4948fe86-5729-4dfe-9ba0-0e124ec4e40d" d="M122.987,64.977a23.428,23.428,0,0,1-2.68,10.737,81.346,81.346,0,0,1-6.676,10.726q.826,5.361,1.553,11.133t.918,11.053a49.011,49.011,0,0,1-.531,9.652,15.628,15.628,0,0,1-2.732,7.018,5.579,5.579,0,0,1-2.3,1.7,4.762,4.762,0,0,1-3.658-.513,21.455,21.455,0,0,1-4.8-3.038q-2.37-1.951-3.393-6.483a24.2,24.2,0,0,1,.941-13.953,50.52,50.52,0,0,1,7.412-13.349q-.208-1.869-.535-3.837t-.588-3.922a23.808,23.808,0,0,1-2.229,6.12,9.944,9.944,0,0,1-4.186,4.27,6.466,6.466,0,0,1-4.373.807,6.986,6.986,0,0,1-3.441-1.879,12.417,12.417,0,0,1-2.523-3.73A22.754,22.754,0,0,1,87.575,82.6q-.571-2.464-.992-5.727t-.7-6.965q-.275-3.7-.248-7.767t.295-8.218a1.662,1.662,0,0,1,.689-1.362,1.429,1.429,0,0,1,1.441.054,7.287,7.287,0,0,1,4.08,4.066A20.986,20.986,0,0,1,93.4,64.947q0,5.164.217,8.958a67.666,67.666,0,0,0,.855,7.513,14.554,14.554,0,0,0,2.014,5.863q1.359,1.925,2.912,1.205a5.215,5.215,0,0,0,2.186-2.457,16.24,16.24,0,0,0,1.3-4.378,53.476,53.476,0,0,0,.627-5.958q.179-3.337.072-7.144-.1-3.221-.3-6.617t-.377-6.633q-.17-3.24-.268-6.172t.018-5.23q.164-2.214,1.764-1.9a9,9,0,0,1,3.367,3.1,13.027,13.027,0,0,1,2.15,6.658q.214,2.451.48,6.041t.67,7.686q.4,4.1.891,8.43t1.008,8.239a52.235,52.235,0,0,0,7.029-22.383,1.327,1.327,0,0,1,.48-.94c.268-.2.6-.11.99.273a5.051,5.051,0,0,1,1.047,2A11.374,11.374,0,0,1,122.987,64.977Zm-15.2,29.154a32.324,32.324,0,0,0-3.588,9.829,38.7,38.7,0,0,0-.666,8.856,22.7,22.7,0,0,0,1.207,6.65q1,2.672,2.063,3.076.791.331,1.387-1.85a31.02,31.02,0,0,0,.814-6.131,90.75,90.75,0,0,0-.041-9.244A107.077,107.077,0,0,0,107.792,94.131Z"/></svg>
		<text x="30" y="20" fill="#000000" font-size="20" font-family="'Roboto'">[oh_my]</text>
	</g>

	<!-- Avatar -->
	<clipPath id="avatar-clip"><circle cx="340" cy="60" r="60"/></clipPath>
	<circle cx="335" cy="65" r="60" style="opacity: 0.3;"/>
	<image x="280" y="0" width="120" height="120" clip-path="url(#avatar-clip)" href="[avatar]"/>
	<text x="270" y="45" fill="#ffffff" font-size="30" font-family="'Roboto'" text-anchor="end">[username]</text>

</svg>