<svg version="1.1" xmlns="http://www.w3.org/2000/svg" viewBox="0 0 400 250" width="400" height="250">
	<!-- Background -->
	<defs>
		<linearGradient id="bg-grad" x1="0" y1="0" x2="100%" y2="0">
			<stop offset="0%" stop-color="rgba(255,255,255,0)" />
			<stop offset="100%" stop-color="rgba(255,255,255,1)" />
		</linearGradient>
	</defs>
	<clipPath id="bg-clip"><rect x="0" y="60" width="400" height="190" rx="10" ry="10"/></clipPath>
	<rect x="0" y="60" width="400" height="190" fill="#ffffff" clip-path="url(#bg-clip)"/>
	<image x="0" y="60" width="400" height="190" clip-path="url(#bg-clip)" preserveAspectRatio="xMaxYMax slice" style="opacity: 0.5" href="[avatar]"/>
	<rect x="0" y="60" width="400" height="190" fill="url(#bg-grad)" clip-path="url(#bg-clip)"/>

	<!-- Text -->
	<rect x="0" y="60" width="350" height="45" fill="#1d1f21" style="opacity: 0.5;" clip-path="url(#bg-clip)"/>
	<rect x="0" y="60" width="[xp]" height="45" fill="#f0b4b4" clip-path="url(#bg-clip)"/>
	<text x="16.5" y="90.5" fill="#000000" style="opacity: 0.5;" font-size="20" font-family="'Roboto'" font-weight="500">[level]</text>
	<text x="15" y="89" fill="#ffffff" font-size="20" font-family="'Roboto'" font-weight="500">[level]</text>

	<g transform="translate(15 115)">
		<text x="0" y="20" fill="#000000" font-size="20" font-family="'Roboto'" font-weight="400">Waifu:</text>
		<svg x="10" y="24" width="32" height="32" viewBox="0 0 128 128" xmlns="http://www.w3.org/2000/svg"><radialGradient id="a" cx="34.5" cy="42" gradientUnits="userSpaceOnUse" r="64.228"><stop offset=".475" stop-color="#e53935"/><stop offset="1" stop-color="#c62828"/></radialGradient><path d="M85.17 57.24c-15.63-8.57-31.61 6.97-31.61 6.97S58.14 42.42 42.4 33.8c-11.82-6.48-30.45-4.5-37.14 19.53-6.7 24.03 15.41 70.53 15.41 70.53s.23.03.29-.09c-.06.12.03.24.03.24S72 117.62 88.66 99.05c16.66-18.57 8.34-35.33-3.49-41.81z" fill="url(#a)"/><path d="M30.13 33.61c3.73 0 7.48.97 10.84 2.82 13.57 7.44 9.71 26.97 9.67 27.17l-2.02 9.62 7.05-6.85c.09-.09 9.06-8.69 19.5-8.69 3.02 0 5.9.74 8.58 2.21 5.87 3.22 9.99 8.79 11.03 14.9 1.22 7.14-1.66 14.84-8.33 22.28-13.94 15.54-54.52 22.32-63.88 23.71-3.9-8.69-20-46.53-14.4-66.63 4.96-17.88 15.89-20.54 21.96-20.54m0-3c-9.86 0-20.22 6.06-24.86 22.71-6.7 24.03 15.41 70.53 15.41 70.53h.06c.07 0 .19-.01.23-.09-.06.12.03.24.03.24s51-6.38 67.66-24.95c16.66-18.57 8.33-35.33-3.49-41.81-3.38-1.85-6.77-2.58-10.02-2.58-11.77 0-21.59 9.54-21.59 9.54s4.58-21.79-11.16-30.41c-3.63-1.99-7.9-3.18-12.27-3.18z" fill="#424242" opacity=".2"/><g><radialGradient id="b" cx="61.84" cy="13.681" gradientTransform="matrix(.9585 -.2796 .2615 .8963 17.634 18.159)" gradientUnits="userSpaceOnUse" r="38.496"><stop offset=".475" stop-color="#e53935"/><stop offset="1" stop-color="#c62828"/></radialGradient><path d="M104.44 4.53C94.09 7.55 93.9 21.03 93.9 21.03s-7.36-11.28-17.79-8.24c-7.83 2.29-14.95 11.1-7.54 24.25 7.42 13.15 36.77 23.58 36.77 23.58s.11-.09.09-.16c.02.08.12.09.12.09S124.64 36 123.82 20.92c-.81-15.07-11.54-18.68-19.38-16.39z" fill="url(#b)"/><path d="M108.85 6.9c7.02 0 11.5 5.3 11.98 14.19.57 10.6-10.69 28.23-16.42 35.99-9.02-3.47-28.01-12.27-33.22-21.51-2.78-4.93-3.46-9.5-1.94-13.21 1.28-3.15 4.16-5.64 7.71-6.68.91-.27 1.83-.4 2.74-.4 6.73 0 11.65 7.33 11.7 7.4l5.37 8.23.14-9.83c0-.11.25-11.29 8.38-13.67 1.15-.34 2.35-.51 3.56-.51m0-3c-1.51 0-3.01.22-4.41.63-10.35 3.02-10.54 16.5-10.54 16.5s-5.72-8.76-14.21-8.76c-1.15 0-2.34.16-3.58.52-7.83 2.29-14.95 11.1-7.54 24.25 7.42 13.15 36.77 23.58 36.77 23.58s.11-.09.09-.16c.02.08.12.09.12.09S124.64 36 123.82 20.92C123.15 8.55 115.8 3.9 108.85 3.9z" fill="#424242" opacity=".2"/></g></svg>
		<text x="50" y="50" fill="#000000" font-size="30" font-family="'Roboto'" font-weight="300">[waifu]</text>
	</g>
	<g transform="translate(15 180)">
		<text x="0" y="20" fill="#000000" font-size="20" font-family="'Roboto'" font-weight="400">Coins:</text>
		<svg x="12" y="26" width="28" height="28" viewBox="0 0 128 128" xmlns="http://www.w3.org/2000/svg"><linearGradient id="c" gradientUnits="userSpaceOnUse" x1="64" x2="64" y1="3" y2="125.241"><stop offset="0" stop-color="#ffb74d"/><stop offset=".743" stop-color="#fb8d03"/><stop offset=".768" stop-color="#fb8c00"/><stop offset="1" stop-color="#fb8c00"/></linearGradient><path d="M58.34 121.65l-52-52c-3.12-3.12-3.12-8.19 0-11.31l52-52c3.12-3.12 8.19-3.12 11.31 0l52 52c3.12 3.12 3.12 8.19 0 11.31l-52 52c-3.12 3.13-8.18 3.13-11.31 0z" fill="url(#c)"/><path d="M64 7c1.34 0 2.59.52 3.54 1.46l52 52c.94.94 1.46 2.2 1.46 3.54 0 1.34-.52 2.59-1.46 3.54l-52 52c-.94.94-2.2 1.46-3.54 1.46-1.34 0-2.59-.52-3.54-1.46l-52-52C7.52 66.59 7 65.34 7 64c0-1.34.52-2.59 1.46-3.54l52-52C61.41 7.52 62.66 7 64 7m0-3c-2.05 0-4.09.78-5.66 2.34l-52 52c-3.12 3.12-3.12 8.19 0 11.31l52 52c1.56 1.56 3.61 2.34 5.66 2.34s4.09-.78 5.66-2.34l52-52c3.12-3.12 3.12-8.19 0-11.31l-52-52A7.997 7.997 0 0 0 64 4z" fill="#424242" opacity=".2"/></svg>
		<text x="50" y="50" fill="#000000" font-size="30" font-family="'Roboto'" font-weight="300">[coins]</text>
	</g>

	<!-- Avatar -->
	<clipPath id="avatar-clip"><circle cx="340" cy="60" r="60"/></clipPath>
	<circle cx="335" cy="65" r="60" style="opacity: 0.3;"/>
	<image x="280" y="0" width="120" height="120" clip-path="url(#avatar-clip)" href="[avatar]"/>
	<text x="270" y="45" fill="#ffffff" font-size="30" font-family="'Roboto'" text-anchor="end">[username]</text>

</svg>